<?xml version="1.0" encoding="utf-8"?>
<!-- Generator: Adobe Illustrator 24.1.2, SVG Export Plug-In . SVG Version: 6.00 Build 0)  -->
<svg version="1.1" id="Ebene_1" xmlns="http://www.w3.org/2000/svg" xmlns:xlink="http://www.w3.org/1999/xlink" x="0px" y="0px"
	 viewBox="0 0 841.9 595.3" style="enable-background:new 0 0 841.9 595.3;" xml:space="preserve">
<style type="text/css">
	.st0{fill:#666766;}
	.st1{fill:url(#SVGID_1_);}
	.st2{fill:#FFFFFF;}
</style>
<path class="st0" d="M373.1,201.7l6.4,6.4l-11.8,11.8c37.3,40.6,36.3,104.1-3.1,143.4s-102.8,40.4-143.4,3.1l-11.7,11.7l-6.4-6.4
	l11.7-11.7c-3.7-4-7.1-8.3-10.1-12.8l7.5-5c3.5,5.3,7.5,10.2,12,14.7l0,0c36.9,36.9,97,36.9,134,0c36.9-36.9,36.9-97,0-133.9
	l-2.1-2.1c-3.9-3.7-8.1-7.1-12.6-10l5-7.5c4.5,3,8.8,6.4,12.8,10.1L373.1,201.7z"/>
<linearGradient id="SVGID_1_" gradientUnits="userSpaceOnUse" x1="604.7415" y1="538.0339" x2="448.834" y2="538.034" gradientTransform="matrix(0.7071 -0.7071 -0.7071 -0.7071 299.1931 1042.8204)">
	<stop  offset="0" style="stop-color:#98C21D"/>
	<stop  offset="1" style="stop-color:#018D38"/>
</linearGradient>
<circle class="st1" cx="291.2" cy="289.9" r="78"/>
<g>
	<path class="st2" d="M301.1,299.7L301.1,299.7L301.1,299.7L301.1,299.7z M281.4,280L281.4,280L281.4,280L281.4,280z"/>
	<path class="st2" d="M281.4,280L281.4,280L281.4,280l-24.3,44.1l44-24.3l0,0l0,0l24.3-44L281.4,280z M269.8,311.3l12.8-23.1
		l10.3,10.4L269.8,311.3z"/>
	<g>
		<path class="st2" d="M301.1,299.8L301.1,299.8L301.1,299.8L301.1,299.8z M281.4,280L281.4,280L281.4,280L281.4,280z"/>
	</g>
</g>
<g>
	<path class="st0" d="M440.5,328.3h2.8l7.7,18.8l7.9-18.8h2.9l0,20.8h-2l0.1-18.4l-7.9,18.4H450l-7.7-18.4l0.1,18.4h-1.9
		L440.5,328.3L440.5,328.3z"/>
	<path class="st0" d="M476.9,347c-1,1.4-2.9,2.5-5.8,2.5c-3.9,0-5.4-1.8-5.4-4.8c0-3.9,2.6-5,6.6-5c2.1,0,3.6,0.1,4.4,0.3
		c-0.1-3.7-0.5-5.1-4.2-5.1c-3.8,0-4.4,2-4.4,3.4h-1.8c0-1.9,0.6-5,6.1-5c6.4,0,6.2,3.4,6.2,8.2v3.8l0.3,3.9h-1.8L476.9,347z
		 M476.8,344.3v-2.8c-0.7-0.1-2.1-0.2-4-0.2c-3.3,0-5.1,0.8-5.1,3.3c0,1.8,0.9,3.2,3.8,3.2C474.9,347.8,476.8,345.7,476.8,344.3z"/>
	<path class="st0" d="M489.3,356.2c-6.6,0-6.1-5.5-6.1-5.5l2.1,0c0,0.1-0.2,3.9,4.1,3.9c4.5,0,4.7-2.5,4.7-5.4v-2
		c-0.7,1.1-2.2,2.3-5.3,2.3c-4.4,0-6.1-3.1-6.1-8.1c0-4.9,1.7-8.2,6.1-8.2c3.4,0,5.1,2,5.6,2.7l0.3-2.4h1.7l-0.3,4v11.8
		C495.9,352.5,495.8,356.2,489.3,356.2z M494,344.9v-7.2c-0.6-0.9-2.1-2.8-5-2.8c-3.1,0-4.6,2.4-4.6,6.4c0,4,1.4,6.3,4.6,6.3
		C492,347.6,493.4,346.1,494,344.9z"/>
	<path class="st0" d="M500.6,337.5l-0.3-4.1h1.7l0.4,2.7c0.7-1.1,2.4-2.9,5.9-2.9c3.5,0,5.2,1.8,5.2,6.7v9.3h-1.9v-9.4
		c0-3.1-0.9-4.8-3.9-4.8c-2.8,0-4.3,1.9-5,3.1v11.1h-1.9L500.6,337.5L500.6,337.5z"/>
	<path class="st0" d="M523.8,349.5c-5.2,0-6.9-3.1-6.9-8.1s1.7-8.2,6.9-8.2c4.9,0,6.8,2.7,6.8,8.6h-11.6c0.1,4.2,1.4,6.1,4.9,6.1
		c3.7,0,4.7-2.1,4.7-3.3h2C530.4,346.1,529.4,349.5,523.8,349.5z M519,339.9h9.5c-0.3-3.7-1.8-5.1-4.7-5.1
		C520.6,334.8,519.2,336.5,519,339.9z"/>
	<path class="st0" d="M539.5,349.2c-4.5,0-4.9-2.6-4.9-6.1v-8h-2v-1.7h2v-4.6l1.9-0.4v5h4.1v1.7h-4.1v7.9c0,2.6,0.3,4.3,3,4.3h1.2
		v1.8L539.5,349.2L539.5,349.2z"/>
	<path class="st0" d="M548.8,349.2c-4.5,0-4.9-2.6-4.9-6.1v-8h-2v-1.7h2v-4.6l1.9-0.4v5h4.1v1.7h-4.1v7.9c0,2.6,0.3,4.3,3,4.3h1.2
		v1.8L548.8,349.2L548.8,349.2z"/>
	<path class="st0" d="M558.8,349.5c-5.2,0-6.9-3.1-6.9-8.1s1.7-8.2,6.9-8.2c4.9,0,6.8,2.7,6.8,8.6h-11.6c0.1,4.2,1.4,6.1,4.9,6.1
		c3.7,0,4.7-2.1,4.7-3.3h2C565.4,346.1,564.4,349.5,558.8,349.5z M553.9,339.9h9.5c-0.3-3.7-1.8-5.1-4.7-5.1
		C555.6,334.8,554.2,336.5,553.9,339.9z"/>
	<path class="st0" d="M575.3,349.5c-5.2,0-6.8-3.1-6.8-8.1c0-5,1.6-8.2,6.8-8.2c4.5,0,6.4,2.2,6.5,5.9h-1.9c0-2.9-1.6-4.3-4.6-4.3
		c-3.6,0-4.8,2.3-4.8,6.6c0,4.4,1.2,6.5,4.8,6.5c2.9,0,4.5-1.2,4.5-3.7h1.9C581.7,347.4,579.8,349.5,575.3,349.5z"/>
	<path class="st0" d="M585.6,327h1.9v8.8c0.8-1.1,2.5-2.6,5.7-2.6c3.5,0,5.2,1.8,5.2,6.6v9.3h-1.9v-9.4c0-3.1-0.9-4.7-3.9-4.7
		c-2.8,0-4.4,2-5,3.1v11h-1.9L585.6,327L585.6,327z"/>
	<path class="st0" d="M602.8,337.5l-0.3-4.1h1.7l0.4,2.7c0.7-1.1,2.4-2.9,5.9-2.9c3.5,0,5.2,1.8,5.2,6.7v9.3h-1.9v-9.4
		c0-3.1-0.9-4.8-3.9-4.8c-2.8,0-4.3,1.9-5,3.1v11.1h-1.9L602.8,337.5L602.8,337.5z"/>
	<path class="st0" d="M619.9,327h2v3.3h-2V327z M619.9,333.4h1.9v15.7h-1.9V333.4z"/>
	<path class="st0" d="M626.6,327h1.9v15.1l7.3-8.7h2.2l-5,5.9l5.8,9.9h-2.2l-4.9-8.4l-3.3,3.8v4.6h-1.9L626.6,327L626.6,327z"/>
</g>
<g>
	<path class="st0" d="M440.8,247.7h7.9v25.8h30.1v-25.8h7.9v61.1h-7.9v-27.9h-30.1v27.9h-7.9V247.7z"/>
	<path class="st0" d="M530.3,303.2c-3.2,3.6-8.5,6.7-16.2,6.7c-11.5,0-16.4-5.2-16.4-14.4c0-11.6,7.7-15.2,19.4-15.2
		c5.8,0,10.1,0.4,12.5,0.8c-0.2-9.5-1.5-13.1-11.2-13.1c-10.1,0-11.8,5.2-11.8,8.9h-7.1c0-5.7,1.9-15.1,18.6-15.1
		c19.5,0,19.2,9.8,19.2,24.1v11l0.9,11.9h-7L530.3,303.2z M529.6,295.1v-7.7c-2.2-0.3-5.7-0.6-10.5-0.6c-8.9,0-13.5,2.1-13.5,8.5
		c0,4.5,2.2,8.2,10,8.2C523.8,303.4,528.8,298.7,529.6,295.1z"/>
	<path class="st0" d="M580.5,303.2c-3.2,3.6-8.5,6.7-16.2,6.7c-11.5,0-16.4-5.2-16.4-14.4c0-11.6,7.7-15.2,19.4-15.2
		c5.8,0,10.1,0.4,12.5,0.8c-0.2-9.5-1.5-13.1-11.2-13.1c-10.1,0-11.8,5.2-11.8,8.9h-7.1c0-5.7,1.9-15.1,18.6-15.1
		c19.5,0,19.2,9.8,19.2,24.1v11l0.9,11.9h-7L580.5,303.2z M579.8,295.1v-7.7c-2.2-0.3-5.7-0.6-10.5-0.6c-8.9,0-13.5,2.1-13.5,8.5
		c0,4.5,2.2,8.2,10,8.2C574,303.4,579,298.7,579.8,295.1z"/>
	<path class="st0" d="M616.7,309.9c-12.6-0.2-19.6-5.9-19.6-16.2h7.6c0,6.2,4.3,9.5,11.9,9.6c8.7,0.1,11.9-2.8,11.9-7.3
		c0.2-11.9-30.4-3-30.6-21.3c-0.1-8.2,6-13.3,18.9-13.1c12.5,0.1,18.3,5.7,18.3,15.2h-7.6c0-5.2-2.6-8.7-10.6-8.9
		c-8.9-0.1-11.3,3.4-11.3,7.1c0,10.9,30.6,2.4,30.6,21.4C636.3,304.9,630.7,310,616.7,309.9z"/>
</g>
</svg>
