<?xml version="1.0" encoding="utf-8"?>
<!-- Generator: Adobe Illustrator 24.1.2, SVG Export Plug-In . SVG Version: 6.00 Build 0)  -->
<svg version="1.1" id="Ebene_1" xmlns="http://www.w3.org/2000/svg" xmlns:xlink="http://www.w3.org/1999/xlink" x="0px" y="0px"
	 viewBox="0 0 841.89 595.276" style="enable-background:new 0 0 841.89 595.276;" xml:space="preserve">
<style type="text/css">
	.st0{fill:#666766;}
	.st1{fill:url(#SVGID_1_);}
	.st2{fill:#FFFFFF;}
</style>
<path class="st0" d="M373.063,201.691l6.364,6.364l-11.78,11.78c37.3,40.637,36.268,104.051-3.104,143.423
	s-102.785,40.404-143.43,3.111l-11.703,11.703l-6.364-6.364l11.745-11.745c-3.684-4.009-7.05-8.308-10.055-12.827l7.502-4.971
	c3.486,5.254,7.538,10.197,12.028,14.687l-0.042,0.042c36.932,36.932,97.022,36.932,133.954,0
	c36.925-36.925,36.925-97.015-0.007-133.947l-2.058-2.058c-3.917-3.691-8.139-7.05-12.594-10.006l4.971-7.502
	c4.518,3.005,8.818,6.371,12.827,10.055L373.063,201.691z"/>
<linearGradient id="SVGID_1_" gradientUnits="userSpaceOnUse" x1="433.2181" y1="216.2095" x2="277.3126" y2="216.2094" gradientTransform="matrix(0.7071 -0.7071 0.7071 0.7071 -112.853 388.2125)">
	<stop  offset="0" style="stop-color:#98C21D"/>
	<stop  offset="1" style="stop-color:#018D38"/>
</linearGradient>
<circle class="st1" cx="291.241" cy="289.885" r="77.953"/>
<g>
	<path class="st2" d="M301.121,299.732l-0.01,0.02l0.02-0.01L301.121,299.732z M281.371,280.012l0.02-0.01l-0.01-0.01
		L281.371,280.012z"/>
	<path class="st2" d="M281.391,280.002l-0.02,0.01l-0.01,0.02l-24.31,44.05l44.04-24.32l0.02-0.01l0.01-0.02l24.31-44.04
		L281.391,280.002z M269.801,311.332l12.75-23.1l10.34,10.35L269.801,311.332z"/>
	<g>
		<path class="st2" d="M301.091,299.762l0.01,0.01l0.01-0.02L301.091,299.762z M281.361,280.032l0.01-0.02l-0.02,0.01
			L281.361,280.032z"/>
	</g>
</g>
<g>
	<path class="st0" d="M440.541,328.341h2.764l7.704,18.818l7.851-18.818h2.853l-0.029,20.817h-1.97l0.117-18.377l-7.851,18.377
		h-1.94l-7.733-18.377l0.146,18.377h-1.911V328.341z"/>
	<path class="st0" d="M476.939,346.982c-1.028,1.353-2.91,2.499-5.792,2.499c-3.911,0-5.439-1.793-5.439-4.822
		c0-3.852,2.587-5.027,6.645-5.027c2.146,0,3.617,0.146,4.411,0.265c-0.059-3.676-0.471-5.087-4.205-5.087
		c-3.822,0-4.439,1.999-4.439,3.381h-1.794c0-1.882,0.617-5.027,6.146-5.027c6.439,0,6.233,3.381,6.233,8.203v3.822l0.323,3.94
		h-1.793L476.939,346.982z M476.763,344.306v-2.764c-0.735-0.089-2.059-0.235-3.97-0.235c-3.322,0-5.087,0.794-5.087,3.264
		c0,1.794,0.853,3.205,3.793,3.205C474.852,347.776,476.763,345.747,476.763,344.306z"/>
	<path class="st0" d="M489.286,356.215c-6.558,0-6.146-5.527-6.146-5.527l2.059-0.029c0,0.059-0.235,3.91,4.087,3.91
		c4.499,0,4.733-2.528,4.733-5.439v-2c-0.734,1.059-2.205,2.294-5.321,2.294c-4.411,0-6.146-3.146-6.146-8.057
		c0-4.939,1.705-8.203,6.086-8.203c3.353,0,5.058,1.999,5.558,2.705l0.323-2.441h1.706l-0.294,3.97v11.791
		C495.932,352.54,495.755,356.215,489.286,356.215z M494.02,344.865v-7.175c-0.559-0.911-2.087-2.764-4.969-2.764
		c-3.146,0-4.558,2.411-4.558,6.439c0,3.999,1.411,6.263,4.558,6.263C491.962,347.629,493.373,346.071,494.02,344.865z"/>
	<path class="st0" d="M500.634,337.514l-0.294-4.088h1.676l0.354,2.676c0.676-1.088,2.381-2.91,5.851-2.91
		c3.499,0,5.176,1.764,5.176,6.674v9.292h-1.941v-9.351c0-3.146-0.911-4.793-3.881-4.793c-2.794,0-4.322,1.912-4.999,3.088v11.056
		h-1.94V337.514z"/>
	<path class="st0" d="M523.773,349.481c-5.175,0-6.851-3.087-6.851-8.145s1.676-8.233,6.851-8.233c4.94,0,6.763,2.676,6.763,8.557
		h-11.614c0.059,4.176,1.382,6.116,4.852,6.116c3.705,0,4.676-2.146,4.676-3.293h1.97
		C530.418,346.071,529.418,349.481,523.773,349.481z M518.951,339.926h9.527c-0.323-3.676-1.823-5.146-4.705-5.146
		C520.597,334.78,519.215,336.514,518.951,339.926z"/>
	<path class="st0" d="M539.531,349.217c-4.499,0-4.852-2.646-4.852-6.057v-7.998h-1.999v-1.735h1.999v-4.646l1.94-0.382v5.027h4.117
		v1.735h-4.117v7.938c0,2.617,0.323,4.293,3.029,4.293h1.176v1.823H539.531z"/>
	<path class="st0" d="M548.85,349.217c-4.499,0-4.852-2.646-4.852-6.057v-7.998h-1.999v-1.735h1.999v-4.646l1.94-0.382v5.027h4.117
		v1.735h-4.117v7.938c0,2.617,0.323,4.293,3.029,4.293h1.176v1.823H548.85z"/>
	<path class="st0" d="M558.758,349.481c-5.175,0-6.851-3.087-6.851-8.145s1.676-8.233,6.851-8.233c4.94,0,6.763,2.676,6.763,8.557
		h-11.614c0.059,4.176,1.382,6.116,4.852,6.116c3.705,0,4.676-2.146,4.676-3.293h1.97
		C565.404,346.071,564.404,349.481,558.758,349.481z M553.936,339.926h9.527c-0.323-3.676-1.823-5.146-4.705-5.146
		C555.582,334.78,554.201,336.514,553.936,339.926z"/>
	<path class="st0" d="M575.31,349.481c-5.204,0-6.792-3.087-6.792-8.145c0-4.999,1.588-8.233,6.792-8.233
		c4.499,0,6.41,2.205,6.469,5.939h-1.911c-0.029-2.881-1.646-4.263-4.558-4.263c-3.587,0-4.793,2.293-4.793,6.557
		c0,4.352,1.206,6.469,4.793,6.469c2.853,0,4.499-1.235,4.528-3.705h1.94C581.72,347.364,579.75,349.481,575.31,349.481z"/>
	<path class="st0" d="M585.599,327.047h1.94v8.791c0.765-1.088,2.47-2.646,5.675-2.646c3.499,0,5.176,1.764,5.176,6.645v9.321
		h-1.941v-9.409c0-3.087-0.911-4.734-3.881-4.734c-2.823,0-4.381,1.971-5.028,3.146v10.997h-1.94V327.047z"/>
	<path class="st0" d="M602.797,337.514l-0.294-4.088h1.676l0.354,2.676c0.676-1.088,2.381-2.91,5.851-2.91
		c3.499,0,5.176,1.764,5.176,6.674v9.292h-1.941v-9.351c0-3.146-0.911-4.793-3.881-4.793c-2.793,0-4.322,1.912-4.999,3.088v11.056
		h-1.94V337.514z"/>
	<path class="st0" d="M619.879,326.958h1.97v3.323h-1.97V326.958z M619.879,333.427h1.94v15.731h-1.94V333.427z"/>
	<path class="st0" d="M626.641,327.047h1.882v15.113l7.292-8.733h2.235l-5.028,5.881l5.821,9.851h-2.205l-4.852-8.38l-3.264,3.822
		v4.558h-1.882V327.047z"/>
</g>
<g>
	<path class="st0" d="M440.841,247.711h7.906v25.781h30.078v-25.781h7.906v61.102h-7.906v-27.93h-30.078v27.93h-7.906V247.711z"/>
	<path class="st0" d="M530.301,303.226c-3.18,3.609-8.508,6.703-16.242,6.703c-11.516,0-16.414-5.156-16.414-14.352
		c0-11.602,7.734-15.211,19.422-15.211c5.844,0,10.055,0.43,12.547,0.773c-0.172-9.453-1.461-13.062-11.172-13.062
		c-10.055,0-11.773,5.156-11.773,8.852h-7.133c0-5.672,1.891-15.125,18.563-15.125c19.508,0,19.25,9.797,19.25,24.062v11
		l0.945,11.859h-7.047L530.301,303.226z M529.614,295.062v-7.734c-2.234-0.258-5.672-0.602-10.484-0.602
		c-8.852,0-13.492,2.062-13.492,8.508c0,4.469,2.234,8.164,9.969,8.164C523.77,303.398,528.84,298.672,529.614,295.062z"/>
	<path class="st0" d="M580.49,303.226c-3.18,3.609-8.508,6.703-16.242,6.703c-11.516,0-16.414-5.156-16.414-14.352
		c0-11.602,7.734-15.211,19.422-15.211c5.844,0,10.055,0.43,12.547,0.773c-0.172-9.453-1.461-13.062-11.172-13.062
		c-10.055,0-11.773,5.156-11.773,8.852h-7.133c0-5.672,1.891-15.125,18.562-15.125c19.508,0,19.25,9.797,19.25,24.062v11
		l0.945,11.859h-7.047L580.49,303.226z M579.802,295.062v-7.734c-2.234-0.258-5.672-0.602-10.484-0.602
		c-8.852,0-13.492,2.062-13.492,8.508c0,4.469,2.234,8.164,9.969,8.164C573.958,303.398,579.029,298.672,579.802,295.062z"/>
	<path class="st0" d="M616.67,309.929c-12.633-0.172-19.594-5.93-19.594-16.242h7.648c0,6.188,4.297,9.453,11.859,9.625
		c8.68,0.086,11.859-2.75,11.945-7.305c0.172-11.859-30.422-3.008-30.594-21.312c-0.086-8.164,6.016-13.32,18.906-13.148
		c12.547,0.086,18.305,5.672,18.305,15.211h-7.562c0-5.242-2.578-8.68-10.57-8.852c-8.938-0.086-11.258,3.438-11.258,7.133
		c0,10.914,30.594,2.406,30.594,21.398C636.35,304.859,630.678,310.015,616.67,309.929z"/>
</g>
</svg>
